/* XPM */
static char * max_pressed_xpm[] = {
"25 25 36 1",
" 	c None",
".	c #000000",
"+	c #FFFFFF",
"@	c #8F8F8F",
"#	c #9C9C9C",
"$	c #9C9C9B",
"%	c #9B9C9C",
"&	c #AEADAD",
"*	c #ADADAD",
"=	c #ADAEAE",
"-	c #ADAEAD",
";	c #ADADAE",
">	c #AEAEAD",
",	c #BFBEBF",
"'	c #BFBEBE",
")	c #BEBFBE",
"!	c #BEBEBF",
"~	c #BEBEBE",
"{	c #BFBFBE",
"]	c #BEBFBF",
"^	c #BFBFBF",
"/	c #CFCFCF",
"(	c #D0D0D0",
"_	c #D0CFD0",
":	c #CFD0D0",
"<	c #CFCFD0",
"[	c #CFD0CF",
"}	c #D0CFCF",
"|	c #D0D0CF",
"1	c #E1E1E0",
"2	c #E1E1E1",
"3	c #E0E1E1",
"4	c #E1E0E1",
"5	c #F2F2F3",
"6	c #F2F2F2",
"7	c #F2F3F2",
".........................",
".........................",
".........................",
".........................",
".........................",
".........................",
".........................",
".........................",
".........................",
".........................",
".........................",
"+++++++++++++++++++++++++",
".........................",
".........................",
".........................",
".........................",
".........................",
".........................",
"@@@@@@@@@@@@@@@@@@@@@@@@@",
"###$#%###################",
"&**=--**&*;*;=**-**&*&>**",
",'),))!'~~{]')]!!',!]){^!",
"/(_:(<([_}(/(<|_</[|(<</<",
"1222324343223232423223224",
"5666676666666666676666667"};
