/* XPM */
static char * window_xpm[] = {
"25 25 35 1",
" 	c None",
".	c #000000",
"+	c #8F8F8F",
"@	c #9C9C9C",
"#	c #9C9C9B",
"$	c #9B9C9C",
"%	c #AEADAD",
"&	c #ADADAD",
"*	c #ADAEAE",
"=	c #ADAEAD",
"-	c #ADADAE",
";	c #AEAEAD",
">	c #BFBEBF",
",	c #BFBEBE",
"'	c #BEBFBE",
")	c #BEBEBF",
"!	c #BEBEBE",
"~	c #BFBFBE",
"{	c #BEBFBF",
"]	c #BFBFBF",
"^	c #CFCFCF",
"/	c #D0D0D0",
"(	c #D0CFD0",
"_	c #CFD0D0",
":	c #CFCFD0",
"<	c #CFD0CF",
"[	c #D0CFCF",
"}	c #D0D0CF",
"|	c #E1E1E0",
"1	c #E1E1E1",
"2	c #E0E1E1",
"3	c #E1E0E1",
"4	c #F2F2F3",
"5	c #F2F2F2",
"6	c #F2F3F2",
".........................",
".........................",
".........................",
".........................",
".........................",
".........................",
".........................",
".........................",
".........................",
".........................",
".........................",
".........................",
".........................",
".........................",
".........................",
".........................",
".........................",
".........................",
"+++++++++++++++++++++++++",
"@@@#@$@@@@@@@@@@@@@@@@@@@",
"%&&*==&&%&-&-*&&=&&%&%;&&",
">,'>''),!!~{,'{)),>){'~])",
"^/(_/:/<([/^/:}(:^<}/::^:",
"|111213232112121312112113",
"4555565555555555565555556"};
